# AST/ASF file generated using VICON BodyLanguage
# -----------------------------------------------
:version 1.10
:name VICON
:units
  mass 1.0
  length 0.45
  angle deg
:documentation
   .ast/.asf automatically generated from VICON data using
   VICON BodyBuilder and BodyLanguage model FoxedUp or BRILLIANT.MOD
:root
   order TX TY TZ RX RY RZ
   axis XYZ
   position 0 0 0  
   orientation 0 0 0 
:bonedata
  begin
     id 1 
     name lhipjoint
     direction 0.611804 -0.747784 0.257906 
     length 2.29243 
     axis 0 0 0  XYZ
  end
  begin
     id 2 
     name lfemur
     direction 0.34202 -0.939693 0  
     length 7.31159  
     axis 0 0 20  XYZ
    dof rx ry rz
    limits (-160.0 20.0)
           (-70.0 70.0)
           (-60.0 70.0)
  end
  begin
     id 3 
     name ltibia
     direction 0.34202 -0.939693 0   
     length 7.33391   
     axis 0 0 20   XYZ
    dof rx
    limits (-10.0 170.0)
  end
  begin
     id 4 
     name lfoot
     direction 0.122263 -0.335914 0.933924   
     length 1.76083   
     axis -90 7.62852e-016 20   XYZ
    dof rx rz
    limits (-45.0 90.0)
           (-70.0 20.0)
  end
  begin
     id 5 
     name ltoes
     direction 1.53533e-011 -4.2177e-011 1   
     length 0.879206   
     axis -90 7.62852e-016 20   XYZ
    dof rx
    limits (-90.0 20.0)
  end
  begin
     id 6 
     name rhipjoint
     direction -0.646469 -0.721248 0.248754   
     length 2.37677  
     axis 0 0 0  XYZ 
  end
  begin
     id 7 
     name rfemur
     direction -0.34202 -0.939693 0   
     length 7.18623   
     axis 0 0 -20   XYZ
    dof rx ry rz
    limits (-160.0 20.0)
           (-70.0 70.0)
           (-70.0 60.0)
  end
  begin
     id 8 
     name rtibia
     direction -0.34202 -0.939693 0   
     length 7.36567   
     axis 0 0 -20   XYZ
    dof rx
    limits (-10.0 170.0)
 end
 begin
     id 9 
     name rfoot
     direction -0.126681 -0.348054 0.928876   
     length 1.71902  
     axis -90 -7.62852e-016 -20   XYZ
    dof rx rz
    limits (-45.0 90.0)
           (-20.0 70.0)
  end
  begin
     id 10 
     name rtoes
     direction -1.53551e-011 -4.21898e-011 1   
     length 0.857792   
     axis -90 -7.62852e-016 -20   XYZ
    dof rx
    limits (-90.0 20.0)
  end
  begin
     id 11 
     name lowerback
     direction 0.0106509 0.999778 0.0181844   
     length 2.07668   
     axis 0 0 0   XYZ
    dof rx ry rz
    limits (-20.0 45.0)
           (-30.0 30.0)
           (-30.0 30.0)
  end
  begin
     id 12 
     name upperback
     direction -0.00456018 0.999989 -0.000590935   
     length 2.08011   
     axis 0 0 0   XYZ
    dof rx ry rz
    limits (-20.0 45.0)
           (-30.0 30.0)
           (-30.0 30.0)
  end
  begin
     id 13 
     name thorax
     direction -0.00910382 0.999916 -0.00923765   
     length 2.07397   
     axis 0 0 0   XYZ
    dof rx ry rz
    limits (-20.0 45.0)
           (-30.0 30.0)
           (-30.0 30.0)
  end
  begin
     id 14 
     name lowerneck
     direction 0.00171967 0.99778 0.0665733   
     length 1.67556   
     axis 0 0 0   XYZ
    dof rx ry rz
    limits (-20.0 45.0)
           (-30.0 30.0)
           (-30.0 30.0)
  end
  begin
     id 15 
     name upperneck
     direction -0.0143166 0.991302 -0.130828   
     length 1.68462   
     axis 0 0 0   XYZ
    dof rx ry rz
    limits (-20.0 45.0)
           (-30.0 30.0)
           (-30.0 30.0)
  end
  begin
     id 16
     name head
     direction -0.00606378 0.998665 -0.0512995  
     length 1.69269  
     axis 0 0 0   XYZ
    dof rx ry rz
    limits (-20.0 45.0)
           (-30.0 30.0)
           (-30.0 30.0)
  end
  begin
     id 17 
     name lclavicle
     direction 0.9638 0.179341 0.197297  
     length 4.12888  
     axis 0 0 0   XYZ
    dof ry rz
    limits (-20.0 10.0)
           (0.0 20.0)
  end
  begin
     id 18 
     name lhumerus
     direction 1 -4.48972e-011 -2.47351e-027   
     length 5.01834   
     axis -180 -30 -90   XYZ
    dof rx ry rz
    limits (-60.0 90.0)
           (-90.0 90.0)
           (-90.0 90.0)
  end
  begin
     id 19
     name lradius
     direction 1 -4.48965e-011 1.51591e-026   
     length 3.4869   
     axis -180 -30 -90   XYZ
    dof rx
    limits (-10.0 170.0)
  end
  begin
     id 20
     name lwrist
     direction 1 -4.48957e-011 2.70032e-026   
     length 1.74345   
     axis -1.81515e-014 90 90   XYZ
    dof ry
    limits (-180.0 0.0)
 end
  begin
     id 21 
     name lhand
     direction 1 -4.48951e-011 5.40064e-026   
     length 0.76799   
     axis -3.44607e-014 90 90   XYZ
    dof rx rz
    limits (-90.0 90.0)
           (-45.0 45.0)
  end
  begin
     id 22 
     name lfingers
     direction 1 -4.48971e-011 1.08013e-025   
     length 0.619174   
     axis -6.89214e-014 90 90   XYZ
    dof rx
    limits (0.0 90.0)
  end
  begin
     id 23
     name lthumb
     direction 0.707107 -6.34931e-011 0.707107   
     length 0.889013   
     axis -90 45 2.85299e-015   XYZ
    dof rx rz
    limits (-45.0 45.0)
           (-45.0 45.0)
  end
  begin
     id 24 
     name rclavicle
     direction -0.961409 0.252588 0.109054   
     length 4.04305  
     axis 0 0 0   XYZ 
    dof ry rz
    limits (-10.0 20.0)
           (-20.0 0.0)
  end
  begin
     id 25 
     name rhumerus
     direction -1 -4.4897e-011 1.33872e-017  
     length 4.70164   
     axis -180 30 90   XYZ
    dof rx ry rz
    limits (-90.0 60.0)
           (-90.0 90.0)
           (-90.0 90.0)
  end
  begin
     id 26 
     name rradius
     direction -1 -4.48954e-011 1.83844e-026   
     length 3.49911   
     axis -180 30 90   XYZ
    dof rx
    limits (-10.0 170.0)
  end
  begin
     id 27 
     name rwrist
     direction -1 -4.49008e-011 2.70032e-026   
     length 1.74955   
     axis -1.81515e-014 -90 -90   XYZ
    dof ry
    limits (-180.0 0.0)
  end
  begin
     id 28
     name rhand
     direction -1 -4.48916e-011 5.40064e-026   
     length 0.739335   
     axis -3.44607e-014 -90 -90   XYZ
    dof rx rz
    limits (-90.0 90.0)
           (-45.0 45.0)
  end
  begin
     id 29
     name rfingers
     direction -1 -4.48987e-011 1.08013e-025   
     length 0.596071   
     axis -6.89214e-014 -90 -90   XYZ
    dof rx
    limits (0.0 90.0)
  end
  begin
     id 30
     name rthumb
     direction -0.707107 -6.34935e-011 0.707107   
     length 0.855843   
     axis -90 -45 -2.85299e-015   XYZ
    dof rx rz
    limits (-45.0 45.0)
           (-45.0 45.0)
  end
:hierarchy
  begin
    root lhipjoint rhipjoint lowerback
    lhipjoint lfemur
    lfemur ltibia
    ltibia lfoot
    lfoot ltoes
    rhipjoint rfemur
    rfemur rtibia
    rtibia rfoot
    rfoot rtoes
    lowerback upperback
    upperback thorax
    thorax lowerneck lclavicle rclavicle
    lowerneck upperneck
    upperneck head
    lclavicle lhumerus
    lhumerus lradius
    lradius lwrist
    lwrist lhand lthumb
    lhand lfingers
    rclavicle rhumerus
    rhumerus rradius
    rradius rwrist
    rwrist rhand rthumb
    rhand rfingers
  end

#!OML:ASF I:\salsa\salsa 7_09\Patient 1\Session 1\dancermale.ASF
:FULLY-SPECIFIED
:DEGREES
225
root -14.4124 17.4286 0.15326 136.151 66.6547 137.515
lowerback -4.04704 -2.35136 -8.05811
upperback 4.78636 -1.82533 -6.0664
thorax 7.42913 -1.00137 -2.08062
lowerneck -7.02968 -3.60964 -1.44864
upperneck 13.8749 -4.63407 0.448483
head 5.37938 -2.2475 0.0719261
rclavicle -2.65843e-014 -5.33488e-014
rhumerus -64.2419 11.8702 -100.65
rradius 96.1074
rwrist 6.16949
rhand -24.4799 0.349898
rfingers 7.12502
rthumb 2.01385 -29.6203
lclavicle -2.65843e-014 -5.33488e-014
lhumerus -34.1209 -50.6426 118.982
lradius 106.119
lwrist 32.9174
lhand -26.558 41.4542
lfingers 7.12502
lthumb 0.0068583 71.434
rfemur 15.9861 -12.1949 -1.1321
rtibia 8.27348
rfoot -21.7451 -7.65451
rtoes 2.32939
lfemur 10.8544 -1.51929 -35.0582
ltibia 9.17227
lfoot -21.9864 -6.29601
ltoes -14.343
226
root -14.391 17.4131 0.157936 139.081 65.9963 140.266
lowerback -4.10969 -2.79535 -7.40683
upperback 4.7174 -2.47727 -6.10517
thorax 7.36735 -1.28857 -2.55099
lowerneck -7.16123 -3.53112 -1.53865
upperneck 14.0627 -4.55265 0.71976
head 5.46809 -2.19147 0.171991
rclavicle 3.64956e-014 7.38982e-014
rhumerus -65.1842 12.2975 -99.7828
rradius 96.9419
rwrist 6.33592
rhand -24.8621 0.630191
rfingers 7.12502
rthumb 1.6447 -29.3432
lclavicle 3.64956e-014 7.38982e-014
lhumerus -33.6174 -51.0621 119.086
lradius 105.253
lwrist 33.3099
lhand -26.5656 41.3043
lfingers 7.12502
lthumb -0.000575382 71.284
rfemur 16.1102 -12.4538 -0.266026
rtibia 8.1306
rfoot -21.9999 -8.70012
rtoes 2.48567
lfemur 10.4801 -2.39138 -34.515
ltibia 9.46153
lfoot -22.0414 -6.65303
ltoes -14.573
227
root -14.3665 17.4006 0.166801 141.492 65.4185 142.516
lowerback -4.21795 -3.2165 -6.81768
upperback 4.65 -3.08677 -6.16152
thorax 7.3226 -1.55829 -3.00468
lowerneck -7.19305 -3.43666 -1.48568
upperneck 14.1234 -4.45254 0.868961
head 5.49343 -2.12875 0.215632
rclavicle 4.43041e-014 -9.44227e-015
rhumerus -65.9998 12.8215 -98.9235
rradius 97.698
rwrist 6.52
rhand -24.9698 0.977149
rfingers 7.12502
rthumb 1.54074 -28.997
lclavicle 4.43041e-014 -9.44227e-015
lhumerus -33.1698 -51.3277 119.099
lradius 104.22
lwrist 33.6337
lhand -26.6977 41.3315
lfingers 7.12502
lthumb -0.128076 71.3112
rfemur 16.0937 -12.7256 0.517935
rtibia 8.21181
rfoot -22.2406 -9.50987
rtoes 2.69314
lfemur 10.1269 -3.4869 -34.1439
ltibia 9.80791
lfoot -22.0873 -6.55855
ltoes -14.7963
228
root -14.3491 17.3829 0.179777 144.97 64.3322 146.046
lowerback -4.0512 -3.87025 -6.10234
upperback 4.62932 -4.05484 -6.13456
thorax 7.14696 -2.00394 -3.46005
lowerneck -7.12651 -3.34965 -1.31447
upperneck 14.1037 -4.35878 0.883337
head 5.47107 -2.07327 0.200242
rclavicle 6.01448e-014 5.55603e-014
rhumerus -66.5531 13.3491 -98.0329
rradius 98.2603
rwrist 6.79697
rhand -24.8538 1.34512
rfingers 7.12502
rthumb 1.65276 -28.6282
lclavicle 6.01448e-014 5.55603e-014
lhumerus -32.8211 -51.4914 119.14
lradius 103.019
lwrist 33.8811
lhand -26.7397 41.3754
lfingers 7.12502
lthumb -0.168722 71.3551
rfemur 16.4254 -13.1465 1.66481
rtibia 8.11535
rfoot -22.353 -10.7666
rtoes 3.44342
lfemur 9.6322 -5.11004 -33.4888
ltibia 10.6579
lfoot -22.2376 -6.67699
ltoes -15.1674
229
root -14.3192 17.3677 0.20007 146.877 63.7232 148.166
lowerback -3.84497 -4.2609 -5.61869
upperback 4.70292 -4.6362 -6.13593
thorax 7.05589 -2.26916 -3.77479
lowerneck -7.19598 -3.29955 -1.18924
upperneck 14.0671 -4.31143 0.903483
head 5.46859 -2.04317 0.188435
rclavicle 2.38542e-014 9.93923e-016
rhumerus -66.8285 13.7736 -97.1284
rradius 98.73
rwrist 7.17134
rhand -24.808 1.59575
rfingers 7.12502
rthumb 1.69695 -28.3772
lclavicle 2.38542e-014 9.93923e-016
lhumerus -32.4564 -51.7035 119.114
lradius 101.666
lwrist 34.1601
lhand -26.4839 41.4777
lfingers 7.12502
lthumb 0.0783884 71.4574
rfemur 16.7148 -13.2648 2.54262
rtibia 8.24564
rfoot -22.5443 -11.5514
rtoes 4.67287
lfemur 9.4287 -6.3449 -33.0544
ltibia 11.4826
lfoot -22.2245 -6.40881
ltoes -15.2352
230
root -14.2887 17.3652 0.217235 146.395 63.4482 148.078
lowerback -3.34531 -4.4161 -5.84806
upperback 4.80348 -4.85035 -6.23297
thorax 6.88531 -2.37876 -3.73561
lowerneck -7.24078 -3.21047 -1.0343
upperneck 14.0321 -4.19029 0.754448
head 5.45728 -1.98724 0.124746
rclavicle 8.38996e-014 5.56597e-015
rhumerus -67.0167 14.2949 -96.1123
rradius 99.2035
rwrist 7.51232
rhand -24.8878 1.68323
rfingers 7.12502
rthumb 1.61991 -28.2904
lclavicle 8.38996e-014 5.56597e-015
lhumerus -32.0765 -51.6916 119.142
lradius 100.12
lwrist 34.4832
lhand -26.0234 41.8063
lfingers 7.12502
lthumb 0.523189 71.7854
rfemur 17.0142 -13.3928 2.27664
rtibia 8.83841
rfoot -22.7305 -11.4608
rtoes 5.26324
lfemur 9.60375 -7.05013 -33.5031
ltibia 12.3437
lfoot -22.3514 -5.66878
ltoes -15.3159
231
root -14.2413 17.3612 0.244564 144.932 63.3911 147.231
lowerback -2.72868 -4.43894 -6.37502
upperback 4.95865 -4.8574 -6.4409
thorax 6.73052 -2.39155 -3.62417
lowerneck -7.14545 -3.10532 -0.775334
upperneck 14.0043 -4.07094 0.688258
head 5.42422 -1.92036 0.0721764
rclavicle 6.18717e-014 4.29375e-014
rhumerus -67.0761 14.7179 -95.2674
rradius 99.582
rwrist 7.8302
rhand -25.0377 1.75944
rfingers 7.12502
rthumb 1.47514 -28.2152
lclavicle 6.18717e-014 4.29375e-014
lhumerus -31.9415 -51.5949 119.12
lradius 98.4774
lwrist 34.9149
lhand -25.5805 42.3099
lfingers 7.12502
lthumb 0.950957 72.2876
rfemur 17.6143 -13.3598 1.66453
rtibia 9.38277
rfoot -22.8242 -10.9846
rtoes 5.9054
lfemur 10.1372 -7.48112 -34.1914
ltibia 13.2272
lfoot -22.9531 -4.51018
ltoes -16.5508
232
root -14.1922 17.3543 0.274698 144.907 63.6151 147.45
lowerback -2.87253 -4.49874 -6.66501
upperback 5.1963 -4.89569 -6.23949
thorax 7.11523 -2.43466 -3.29122
lowerneck -7.33847 -2.96391 -0.955492
upperneck 14.1011 -3.87888 0.841761
head 5.49267 -1.82445 0.158491
rclavicle -1.76421e-015 -7.43455e-014
rhumerus -66.5595 15.374 -94.0331
rradius 99.8272
rwrist 8.02421
rhand -25.2645 1.96052
rfingers 7.12502
rthumb 1.25615 -28.0155
lclavicle -1.76421e-015 -7.43455e-014
lhumerus -31.229 -51.4204 118.893
lradius 96.5148
lwrist 35.4366
lhand -25.2722 42.3861
lfingers 7.12502
lthumb 1.24867 72.3622
rfemur 17.6687 -13.3544 1.95348
rtibia 9.90877
rfoot -22.9213 -10.6015
rtoes 7.52685
lfemur 9.96748 -8.08619 -34.179
ltibia 14.5264
lfoot -23.5801 -3.23052
ltoes -17.5878
233
root -14.1461 17.3477 0.307002 144.388 63.8207 147.421
lowerback -2.37455 -4.5501 -6.79866
upperback 5.26297 -4.99365 -6.2953
thorax 6.90732 -2.48482 -3.24533
lowerneck -7.36496 -2.80654 -0.851436
upperneck 14.2558 -3.68639 0.905446
head 5.54283 -1.7182 0.17335
rclavicle 3.13086e-015 1.86858e-014
rhumerus -66.2085 15.813 -93.2839
rradius 99.9657
rwrist 8.15193
rhand -25.4788 2.16134
rfingers 7.12502
rthumb 1.04913 -27.8158
lclavicle 3.13086e-015 1.86858e-014
lhumerus -31.1285 -50.9866 118.783
lradius 94.2587
lwrist 35.8219
lhand -25.1877 42.1259
lfingers 7.12502
lthumb 1.33027 72.1015
rfemur 17.9786 -13.2955 2.03482
rtibia 10.4899
rfoot -23.0133 -10.2495
rtoes 8.66947
lfemur 9.91032 -8.631 -34.3457
ltibia 16.1498
lfoot -24.114 -1.9892
ltoes -17.3215
